<?xml version="1.0" encoding="UTF-8" standalone="no"?>
<!DOCTYPE svg PUBLIC "-//W3C//DTD SVG 1.1//EN"
 "http://www.w3.org/Graphics/SVG/1.1/DTD/svg11.dtd">
<!-- Generated by graphviz version 2.47.0 (20210316.0004)
 -->
<!-- Title: dbml Pages: 1 -->
<svg width="1829pt" height="3059pt"
 viewBox="0.00 0.00 1829.38 3058.64" xmlns="http://www.w3.org/2000/svg" xmlns:xlink="http://www.w3.org/1999/xlink">
<g id="graph0" class="graph" transform="scale(1 1) rotate(0) translate(4 3054.64)">
<title>dbml</title>
<!-- Address -->
<g id="Address" class="node">
<title>Address</title>
<ellipse fill="none" stroke="black" stroke-width="0" cx="1044.33" cy="-1988.53" rx="275.54" ry="257.27"/>
<polygon fill="#1d71b8" stroke="transparent" points="851.33,-2108.53 851.33,-2168.53 1237.33,-2168.53 1237.33,-2108.53 851.33,-2108.53"/>
<polygon fill="none" stroke="#29235c" points="851.33,-2108.53 851.33,-2168.53 1237.33,-2168.53 1237.33,-2108.53 851.33,-2108.53"/>
<text text-anchor="start" x="923.4" y="-2129.73" font-family="Helvetica,sans-Serif" font-weight="bold" font-size="32.00" fill="#ffffff"> &#160;&#160;&#160;&#160;&#160;&#160;Address &#160;&#160;&#160;&#160;&#160;&#160;</text>
<polygon fill="#e7e2dd" stroke="transparent" points="851.33,-2048.53 851.33,-2108.53 1237.33,-2108.53 1237.33,-2048.53 851.33,-2048.53"/>
<polygon fill="none" stroke="#29235c" points="851.33,-2048.53 851.33,-2108.53 1237.33,-2108.53 1237.33,-2048.53 851.33,-2048.53"/>
<text text-anchor="start" x="862.33" y="-2069.73" font-family="Helvetica,sans-Serif" font-weight="bold" font-size="32.00" fill="#29235c">id</text>
<text text-anchor="start" x="887.22" y="-2069.73" font-family="Helvetica,sans-Serif" font-size="32.00" fill="#29235c"> &#160;&#160;&#160;</text>
<text text-anchor="start" x="1084.12" y="-2069.73" font-family="Helvetica,sans-Serif" font-style="italic" font-size="32.00" fill="#29235c">INTEGER</text>
<polygon fill="#e7e2dd" stroke="transparent" points="851.33,-1988.53 851.33,-2048.53 1237.33,-2048.53 1237.33,-1988.53 851.33,-1988.53"/>
<polygon fill="none" stroke="#29235c" points="851.33,-1988.53 851.33,-2048.53 1237.33,-2048.53 1237.33,-1988.53 851.33,-1988.53"/>
<text text-anchor="start" x="862.33" y="-2008.73" font-family="Helvetica,sans-Serif" font-size="32.00" fill="#29235c">customer_id &#160;&#160;&#160;</text>
<text text-anchor="start" x="1084.12" y="-2009.73" font-family="Helvetica,sans-Serif" font-style="italic" font-size="32.00" fill="#29235c">INTEGER</text>
<polygon fill="#e7e2dd" stroke="transparent" points="851.33,-1928.53 851.33,-1988.53 1237.33,-1988.53 1237.33,-1928.53 851.33,-1928.53"/>
<polygon fill="none" stroke="#29235c" points="851.33,-1928.53 851.33,-1988.53 1237.33,-1988.53 1237.33,-1928.53 851.33,-1928.53"/>
<text text-anchor="start" x="862.33" y="-1948.73" font-family="Helvetica,sans-Serif" font-size="32.00" fill="#29235c">street &#160;&#160;&#160;</text>
<text text-anchor="start" x="1069.91" y="-1949.73" font-family="Helvetica,sans-Serif" font-style="italic" font-size="32.00" fill="#29235c">VARCHAR</text>
<polygon fill="#e7e2dd" stroke="transparent" points="851.33,-1868.53 851.33,-1928.53 1237.33,-1928.53 1237.33,-1868.53 851.33,-1868.53"/>
<polygon fill="none" stroke="#29235c" points="851.33,-1868.53 851.33,-1928.53 1237.33,-1928.53 1237.33,-1868.53 851.33,-1868.53"/>
<text text-anchor="start" x="862.33" y="-1888.73" font-family="Helvetica,sans-Serif" font-size="32.00" fill="#29235c">city &#160;&#160;&#160;</text>
<text text-anchor="start" x="1069.91" y="-1889.73" font-family="Helvetica,sans-Serif" font-style="italic" font-size="32.00" fill="#29235c">VARCHAR</text>
<polygon fill="#e7e2dd" stroke="transparent" points="851.33,-1808.53 851.33,-1868.53 1237.33,-1868.53 1237.33,-1808.53 851.33,-1808.53"/>
<polygon fill="none" stroke="#29235c" points="851.33,-1808.53 851.33,-1868.53 1237.33,-1868.53 1237.33,-1808.53 851.33,-1808.53"/>
<text text-anchor="start" x="862.29" y="-1828.73" font-family="Helvetica,sans-Serif" font-size="32.00" fill="#29235c">postal_code &#160;&#160;&#160;</text>
<text text-anchor="start" x="1070.12" y="-1829.73" font-family="Helvetica,sans-Serif" font-style="italic" font-size="32.00" fill="#29235c">VARCHAR</text>
<polygon fill="none" stroke="#29235c" stroke-width="2" points="850.33,-1807.53 850.33,-2169.53 1238.33,-2169.53 1238.33,-1807.53 850.33,-1807.53"/>
</g>
<!-- Customer -->
<g id="Customer" class="node">
<title>Customer</title>
<ellipse fill="none" stroke="black" stroke-width="0" cx="1597.23" cy="-1721.53" rx="224.31" ry="214.92"/>
<polygon fill="#1d71b8" stroke="transparent" points="1441.23,-1811.53 1441.23,-1871.53 1754.23,-1871.53 1754.23,-1811.53 1441.23,-1811.53"/>
<polygon fill="none" stroke="#29235c" points="1441.23,-1811.53 1441.23,-1871.53 1754.23,-1871.53 1754.23,-1811.53 1441.23,-1811.53"/>
<text text-anchor="start" x="1466.15" y="-1832.73" font-family="Helvetica,sans-Serif" font-weight="bold" font-size="32.00" fill="#ffffff"> &#160;&#160;&#160;&#160;&#160;&#160;Customer &#160;&#160;&#160;&#160;&#160;&#160;</text>
<polygon fill="#e7e2dd" stroke="transparent" points="1441.23,-1751.53 1441.23,-1811.53 1754.23,-1811.53 1754.23,-1751.53 1441.23,-1751.53"/>
<polygon fill="none" stroke="#29235c" points="1441.23,-1751.53 1441.23,-1811.53 1754.23,-1811.53 1754.23,-1751.53 1441.23,-1751.53"/>
<text text-anchor="start" x="1452.23" y="-1772.73" font-family="Helvetica,sans-Serif" font-weight="bold" font-size="32.00" fill="#29235c">id</text>
<text text-anchor="start" x="1477.12" y="-1772.73" font-family="Helvetica,sans-Serif" font-size="32.00" fill="#29235c"> &#160;&#160;&#160;</text>
<text text-anchor="start" x="1601.01" y="-1772.73" font-family="Helvetica,sans-Serif" font-style="italic" font-size="32.00" fill="#29235c">INTEGER</text>
<polygon fill="#e7e2dd" stroke="transparent" points="1441.23,-1691.53 1441.23,-1751.53 1754.23,-1751.53 1754.23,-1691.53 1441.23,-1691.53"/>
<polygon fill="none" stroke="#29235c" points="1441.23,-1691.53 1441.23,-1751.53 1754.23,-1751.53 1754.23,-1691.53 1441.23,-1691.53"/>
<text text-anchor="start" x="1452.23" y="-1711.73" font-family="Helvetica,sans-Serif" font-size="32.00" fill="#29235c">name &#160;&#160;&#160;</text>
<text text-anchor="start" x="1586.8" y="-1712.73" font-family="Helvetica,sans-Serif" font-style="italic" font-size="32.00" fill="#29235c">VARCHAR</text>
<polygon fill="#e7e2dd" stroke="transparent" points="1441.23,-1631.53 1441.23,-1691.53 1754.23,-1691.53 1754.23,-1631.53 1441.23,-1631.53"/>
<polygon fill="none" stroke="#29235c" points="1441.23,-1631.53 1441.23,-1691.53 1754.23,-1691.53 1754.23,-1631.53 1441.23,-1631.53"/>
<text text-anchor="start" x="1452.23" y="-1651.73" font-family="Helvetica,sans-Serif" font-size="32.00" fill="#29235c">balance &#160;&#160;&#160;</text>
<text text-anchor="start" x="1640.11" y="-1652.73" font-family="Helvetica,sans-Serif" font-style="italic" font-size="32.00" fill="#29235c">FLOAT</text>
<polygon fill="#e7e2dd" stroke="transparent" points="1441.23,-1571.53 1441.23,-1631.53 1754.23,-1631.53 1754.23,-1571.53 1441.23,-1571.53"/>
<polygon fill="none" stroke="#29235c" points="1441.23,-1571.53 1441.23,-1631.53 1754.23,-1631.53 1754.23,-1571.53 1441.23,-1571.53"/>
<text text-anchor="start" x="1452.01" y="-1591.73" font-family="Helvetica,sans-Serif" font-size="32.00" fill="#29235c">credit_limit &#160;&#160;&#160;</text>
<text text-anchor="start" x="1640.17" y="-1592.73" font-family="Helvetica,sans-Serif" font-style="italic" font-size="32.00" fill="#29235c">FLOAT</text>
<polygon fill="none" stroke="#29235c" stroke-width="2" points="1439.73,-1570.53 1439.73,-1872.53 1754.73,-1872.53 1754.73,-1570.53 1439.73,-1570.53"/>
</g>
<!-- Address&#45;&gt;Customer -->
<!-- Address&#45;&gt;Customer -->
<g id="edge2" class="edge">
<title>Address:e&#45;&gt;Customer:w</title>
<path fill="none" stroke="#29235c" stroke-width="3" d="M1238.33,-2018.53C1373.19,-2018.53 1305.52,-1793.42 1430.09,-1781.98"/>
<polygon fill="#29235c" stroke="#29235c" stroke-width="3" points="1430.39,-1785.47 1440.23,-1781.53 1430.08,-1778.48 1430.39,-1785.47"/>
<text text-anchor="middle" x="1434.01" y="-1752.73" font-family="Helvetica,sans-Serif" font-size="32.00" fill="#29235c">*</text>
<text text-anchor="middle" x="1229.44" y="-1989.73" font-family="Helvetica,sans-Serif" font-size="32.00" fill="#29235c">1</text>
</g>
<!-- Category -->
<g id="Category" class="node">
<title>Category</title>
<ellipse fill="none" stroke="black" stroke-width="0" cx="1044.33" cy="-202.53" rx="210.02" ry="130.22"/>
<polygon fill="#1d71b8" stroke="transparent" points="898.33,-232.53 898.33,-292.53 1191.33,-292.53 1191.33,-232.53 898.33,-232.53"/>
<polygon fill="none" stroke="#29235c" points="898.33,-232.53 898.33,-292.53 1191.33,-292.53 1191.33,-232.53 898.33,-232.53"/>
<text text-anchor="start" x="917.68" y="-253.73" font-family="Helvetica,sans-Serif" font-weight="bold" font-size="32.00" fill="#ffffff"> &#160;&#160;&#160;&#160;&#160;&#160;Category &#160;&#160;&#160;&#160;&#160;&#160;</text>
<polygon fill="#e7e2dd" stroke="transparent" points="898.33,-172.53 898.33,-232.53 1191.33,-232.53 1191.33,-172.53 898.33,-172.53"/>
<polygon fill="none" stroke="#29235c" points="898.33,-172.53 898.33,-232.53 1191.33,-232.53 1191.33,-172.53 898.33,-172.53"/>
<text text-anchor="start" x="909.33" y="-193.73" font-family="Helvetica,sans-Serif" font-weight="bold" font-size="32.00" fill="#29235c">id</text>
<text text-anchor="start" x="934.22" y="-193.73" font-family="Helvetica,sans-Serif" font-size="32.00" fill="#29235c"> &#160;&#160;&#160;</text>
<text text-anchor="start" x="1038.12" y="-193.73" font-family="Helvetica,sans-Serif" font-style="italic" font-size="32.00" fill="#29235c">INTEGER</text>
<polygon fill="#e7e2dd" stroke="transparent" points="898.33,-112.53 898.33,-172.53 1191.33,-172.53 1191.33,-112.53 898.33,-112.53"/>
<polygon fill="none" stroke="#29235c" points="898.33,-112.53 898.33,-172.53 1191.33,-172.53 1191.33,-112.53 898.33,-112.53"/>
<text text-anchor="start" x="909.04" y="-132.73" font-family="Helvetica,sans-Serif" font-size="32.00" fill="#29235c">name &#160;&#160;&#160;</text>
<text text-anchor="start" x="1024.12" y="-133.73" font-family="Helvetica,sans-Serif" font-style="italic" font-size="32.00" fill="#29235c">VARCHAR</text>
<polygon fill="none" stroke="#29235c" stroke-width="2" points="896.83,-111.53 896.83,-293.53 1191.83,-293.53 1191.83,-111.53 896.83,-111.53"/>
</g>
<!-- Department -->
<g id="Department" class="node">
<title>Department</title>
<ellipse fill="none" stroke="black" stroke-width="0" cx="1044.33" cy="-2393.53" rx="224.31" ry="130.22"/>
<polygon fill="#1d71b8" stroke="transparent" points="888.33,-2423.53 888.33,-2483.53 1201.33,-2483.53 1201.33,-2423.53 888.33,-2423.53"/>
<polygon fill="none" stroke="#29235c" points="888.33,-2423.53 888.33,-2483.53 1201.33,-2483.53 1201.33,-2423.53 888.33,-2423.53"/>
<text text-anchor="start" x="899.02" y="-2444.73" font-family="Helvetica,sans-Serif" font-weight="bold" font-size="32.00" fill="#ffffff"> &#160;&#160;&#160;&#160;&#160;&#160;Department &#160;&#160;&#160;&#160;&#160;&#160;</text>
<polygon fill="#e7e2dd" stroke="transparent" points="888.33,-2363.53 888.33,-2423.53 1201.33,-2423.53 1201.33,-2363.53 888.33,-2363.53"/>
<polygon fill="none" stroke="#29235c" points="888.33,-2363.53 888.33,-2423.53 1201.33,-2423.53 1201.33,-2363.53 888.33,-2363.53"/>
<text text-anchor="start" x="899.33" y="-2384.73" font-family="Helvetica,sans-Serif" font-weight="bold" font-size="32.00" fill="#29235c">id</text>
<text text-anchor="start" x="924.22" y="-2384.73" font-family="Helvetica,sans-Serif" font-size="32.00" fill="#29235c"> &#160;&#160;&#160;</text>
<text text-anchor="start" x="1048.12" y="-2384.73" font-family="Helvetica,sans-Serif" font-style="italic" font-size="32.00" fill="#29235c">INTEGER</text>
<polygon fill="#e7e2dd" stroke="transparent" points="888.33,-2303.53 888.33,-2363.53 1201.33,-2363.53 1201.33,-2303.53 888.33,-2303.53"/>
<polygon fill="none" stroke="#29235c" points="888.33,-2303.53 888.33,-2363.53 1201.33,-2363.53 1201.33,-2303.53 888.33,-2303.53"/>
<text text-anchor="start" x="899.33" y="-2323.73" font-family="Helvetica,sans-Serif" font-size="32.00" fill="#29235c">name &#160;&#160;&#160;</text>
<text text-anchor="start" x="1033.91" y="-2324.73" font-family="Helvetica,sans-Serif" font-style="italic" font-size="32.00" fill="#29235c">VARCHAR</text>
<polygon fill="none" stroke="#29235c" stroke-width="2" points="886.83,-2302.53 886.83,-2484.53 1201.83,-2484.53 1201.83,-2302.53 886.83,-2302.53"/>
</g>
<!-- Employee -->
<g id="Employee" class="node">
<title>Employee</title>
<ellipse fill="none" stroke="black" stroke-width="0" cx="1044.33" cy="-2714.53" rx="231.45" ry="172.57"/>
<polygon fill="#1d71b8" stroke="transparent" points="883.33,-2774.53 883.33,-2834.53 1206.33,-2834.53 1206.33,-2774.53 883.33,-2774.53"/>
<polygon fill="none" stroke="#29235c" points="883.33,-2774.53 883.33,-2834.53 1206.33,-2834.53 1206.33,-2774.53 883.33,-2774.53"/>
<text text-anchor="start" x="911.46" y="-2795.73" font-family="Helvetica,sans-Serif" font-weight="bold" font-size="32.00" fill="#ffffff"> &#160;&#160;&#160;&#160;&#160;&#160;Employee &#160;&#160;&#160;&#160;&#160;&#160;</text>
<polygon fill="#e7e2dd" stroke="transparent" points="883.33,-2714.53 883.33,-2774.53 1206.33,-2774.53 1206.33,-2714.53 883.33,-2714.53"/>
<polygon fill="none" stroke="#29235c" points="883.33,-2714.53 883.33,-2774.53 1206.33,-2774.53 1206.33,-2714.53 883.33,-2714.53"/>
<text text-anchor="start" x="894.33" y="-2735.73" font-family="Helvetica,sans-Serif" font-weight="bold" font-size="32.00" fill="#29235c">id</text>
<text text-anchor="start" x="919.22" y="-2735.73" font-family="Helvetica,sans-Serif" font-size="32.00" fill="#29235c"> &#160;&#160;&#160;</text>
<text text-anchor="start" x="1053.12" y="-2735.73" font-family="Helvetica,sans-Serif" font-style="italic" font-size="32.00" fill="#29235c">INTEGER</text>
<polygon fill="#e7e2dd" stroke="transparent" points="883.33,-2654.53 883.33,-2714.53 1206.33,-2714.53 1206.33,-2654.53 883.33,-2654.53"/>
<polygon fill="none" stroke="#29235c" points="883.33,-2654.53 883.33,-2714.53 1206.33,-2714.53 1206.33,-2654.53 883.33,-2654.53"/>
<text text-anchor="start" x="894.33" y="-2674.73" font-family="Helvetica,sans-Serif" font-size="32.00" fill="#29235c">name &#160;&#160;&#160;</text>
<text text-anchor="start" x="1038.91" y="-2675.73" font-family="Helvetica,sans-Serif" font-style="italic" font-size="32.00" fill="#29235c">VARCHAR</text>
<polygon fill="#e7e2dd" stroke="transparent" points="883.33,-2594.53 883.33,-2654.53 1206.33,-2654.53 1206.33,-2594.53 883.33,-2594.53"/>
<polygon fill="none" stroke="#29235c" points="883.33,-2594.53 883.33,-2654.53 1206.33,-2654.53 1206.33,-2594.53 883.33,-2594.53"/>
<text text-anchor="start" x="893.92" y="-2614.73" font-family="Helvetica,sans-Serif" font-size="32.00" fill="#29235c">position &#160;&#160;&#160;</text>
<text text-anchor="start" x="1039.12" y="-2615.73" font-family="Helvetica,sans-Serif" font-style="italic" font-size="32.00" fill="#29235c">VARCHAR</text>
<polygon fill="none" stroke="#29235c" stroke-width="2" points="881.83,-2593.53 881.83,-2835.53 1206.83,-2835.53 1206.83,-2593.53 881.83,-2593.53"/>
</g>
<!-- Employment -->
<g id="Employment" class="node">
<title>Employment</title>
<ellipse fill="none" stroke="black" stroke-width="0" cx="357.8" cy="-2599.53" rx="288.5" ry="172.57"/>
<polygon fill="#1d71b8" stroke="transparent" points="155.8,-2659.53 155.8,-2719.53 559.8,-2719.53 559.8,-2659.53 155.8,-2659.53"/>
<polygon fill="none" stroke="#29235c" points="155.8,-2659.53 155.8,-2719.53 559.8,-2719.53 559.8,-2659.53 155.8,-2659.53"/>
<text text-anchor="start" x="206.65" y="-2680.73" font-family="Helvetica,sans-Serif" font-weight="bold" font-size="32.00" fill="#ffffff"> &#160;&#160;&#160;&#160;&#160;&#160;Employment &#160;&#160;&#160;&#160;&#160;&#160;</text>
<polygon fill="#e7e2dd" stroke="transparent" points="155.8,-2599.53 155.8,-2659.53 559.8,-2659.53 559.8,-2599.53 155.8,-2599.53"/>
<polygon fill="none" stroke="#29235c" points="155.8,-2599.53 155.8,-2659.53 559.8,-2659.53 559.8,-2599.53 155.8,-2599.53"/>
<text text-anchor="start" x="166.8" y="-2620.73" font-family="Helvetica,sans-Serif" font-weight="bold" font-size="32.00" fill="#29235c">id</text>
<text text-anchor="start" x="191.69" y="-2620.73" font-family="Helvetica,sans-Serif" font-size="32.00" fill="#29235c"> &#160;&#160;&#160;</text>
<text text-anchor="start" x="406.58" y="-2620.73" font-family="Helvetica,sans-Serif" font-style="italic" font-size="32.00" fill="#29235c">INTEGER</text>
<polygon fill="#e7e2dd" stroke="transparent" points="155.8,-2539.53 155.8,-2599.53 559.8,-2599.53 559.8,-2539.53 155.8,-2539.53"/>
<polygon fill="none" stroke="#29235c" points="155.8,-2539.53 155.8,-2599.53 559.8,-2599.53 559.8,-2539.53 155.8,-2539.53"/>
<text text-anchor="start" x="166.8" y="-2559.73" font-family="Helvetica,sans-Serif" font-size="32.00" fill="#29235c">employee_id &#160;&#160;&#160;</text>
<text text-anchor="start" x="406.58" y="-2560.73" font-family="Helvetica,sans-Serif" font-style="italic" font-size="32.00" fill="#29235c">INTEGER</text>
<polygon fill="#e7e2dd" stroke="transparent" points="155.8,-2479.53 155.8,-2539.53 559.8,-2539.53 559.8,-2479.53 155.8,-2479.53"/>
<polygon fill="none" stroke="#29235c" points="155.8,-2479.53 155.8,-2539.53 559.8,-2539.53 559.8,-2479.53 155.8,-2479.53"/>
<text text-anchor="start" x="166.76" y="-2499.73" font-family="Helvetica,sans-Serif" font-size="32.00" fill="#29235c">department_id &#160;&#160;&#160;</text>
<text text-anchor="start" x="406.69" y="-2500.73" font-family="Helvetica,sans-Serif" font-style="italic" font-size="32.00" fill="#29235c">INTEGER</text>
<polygon fill="none" stroke="#29235c" stroke-width="2" points="154.8,-2478.53 154.8,-2720.53 560.8,-2720.53 560.8,-2478.53 154.8,-2478.53"/>
</g>
<!-- Employment&#45;&gt;Department -->
<!-- Employment&#45;&gt;Department -->
<g id="edge4" class="edge">
<title>Employment:e&#45;&gt;Department:w</title>
<path fill="none" stroke="#29235c" stroke-width="3" d="M560.8,-2509.53C711.35,-2509.53 732.42,-2398.69 877.16,-2393.71"/>
<polygon fill="#29235c" stroke="#29235c" stroke-width="3" points="877.4,-2397.2 887.33,-2393.53 877.28,-2390.2 877.4,-2397.2"/>
<text text-anchor="middle" x="881.11" y="-2364.73" font-family="Helvetica,sans-Serif" font-size="32.00" fill="#29235c">*</text>
<text text-anchor="middle" x="551.9" y="-2480.73" font-family="Helvetica,sans-Serif" font-size="32.00" fill="#29235c">1</text>
</g>
<!-- Employment&#45;&gt;Employee -->
<!-- Employment&#45;&gt;Employee -->
<g id="edge6" class="edge">
<title>Employment:e&#45;&gt;Employee:w</title>
<path fill="none" stroke="#29235c" stroke-width="3" d="M560.8,-2569.53C720,-2569.53 719.72,-2737.1 872.08,-2744.3"/>
<polygon fill="#29235c" stroke="#29235c" stroke-width="3" points="872.26,-2747.8 882.33,-2744.53 872.42,-2740.8 872.26,-2747.8"/>
<text text-anchor="middle" x="876.11" y="-2754.13" font-family="Helvetica,sans-Serif" font-size="32.00" fill="#29235c">*</text>
<text text-anchor="middle" x="551.9" y="-2540.73" font-family="Helvetica,sans-Serif" font-size="32.00" fill="#29235c">1</text>
</g>
<!-- Inventory -->
<g id="Inventory" class="node">
<title>Inventory</title>
<ellipse fill="none" stroke="black" stroke-width="0" cx="357.8" cy="-535.53" rx="318.4" ry="172.57"/>
<polygon fill="#1d71b8" stroke="transparent" points="134.8,-595.53 134.8,-655.53 580.8,-655.53 580.8,-595.53 134.8,-595.53"/>
<polygon fill="none" stroke="#29235c" points="134.8,-595.53 134.8,-655.53 580.8,-655.53 580.8,-595.53 134.8,-595.53"/>
<text text-anchor="start" x="229.75" y="-616.73" font-family="Helvetica,sans-Serif" font-weight="bold" font-size="32.00" fill="#ffffff"> &#160;&#160;&#160;&#160;&#160;&#160;Inventory &#160;&#160;&#160;&#160;&#160;&#160;</text>
<polygon fill="#e7e2dd" stroke="transparent" points="134.8,-535.53 134.8,-595.53 580.8,-595.53 580.8,-535.53 134.8,-535.53"/>
<polygon fill="none" stroke="#29235c" points="134.8,-535.53 134.8,-595.53 580.8,-595.53 580.8,-535.53 134.8,-535.53"/>
<text text-anchor="start" x="145.8" y="-556.73" font-family="Helvetica,sans-Serif" font-weight="bold" font-size="32.00" fill="#29235c">id</text>
<text text-anchor="start" x="170.69" y="-556.73" font-family="Helvetica,sans-Serif" font-size="32.00" fill="#29235c"> &#160;&#160;&#160;</text>
<text text-anchor="start" x="427.58" y="-556.73" font-family="Helvetica,sans-Serif" font-style="italic" font-size="32.00" fill="#29235c">INTEGER</text>
<polygon fill="#e7e2dd" stroke="transparent" points="134.8,-475.53 134.8,-535.53 580.8,-535.53 580.8,-475.53 134.8,-475.53"/>
<polygon fill="none" stroke="#29235c" points="134.8,-475.53 134.8,-535.53 580.8,-535.53 580.8,-475.53 134.8,-475.53"/>
<text text-anchor="start" x="145.8" y="-495.73" font-family="Helvetica,sans-Serif" font-size="32.00" fill="#29235c">product_id &#160;&#160;&#160;</text>
<text text-anchor="start" x="427.58" y="-496.73" font-family="Helvetica,sans-Serif" font-style="italic" font-size="32.00" fill="#29235c">INTEGER</text>
<polygon fill="#e7e2dd" stroke="transparent" points="134.8,-415.53 134.8,-475.53 580.8,-475.53 580.8,-415.53 134.8,-415.53"/>
<polygon fill="none" stroke="#29235c" points="134.8,-415.53 134.8,-475.53 580.8,-475.53 580.8,-415.53 134.8,-415.53"/>
<text text-anchor="start" x="145.42" y="-435.73" font-family="Helvetica,sans-Serif" font-size="32.00" fill="#29235c">quantity_in_stock &#160;&#160;&#160;</text>
<text text-anchor="start" x="427.69" y="-436.73" font-family="Helvetica,sans-Serif" font-style="italic" font-size="32.00" fill="#29235c">INTEGER</text>
<polygon fill="none" stroke="#29235c" stroke-width="2" points="133.8,-414.53 133.8,-656.53 581.8,-656.53 581.8,-414.53 133.8,-414.53"/>
</g>
<!-- Product -->
<g id="Product" class="node">
<title>Product</title>
<ellipse fill="none" stroke="black" stroke-width="0" cx="1044.33" cy="-765.53" rx="214.01" ry="172.57"/>
<polygon fill="#1d71b8" stroke="transparent" points="895.33,-825.53 895.33,-885.53 1194.33,-885.53 1194.33,-825.53 895.33,-825.53"/>
<polygon fill="none" stroke="#29235c" points="895.33,-825.53 895.33,-885.53 1194.33,-885.53 1194.33,-825.53 895.33,-825.53"/>
<text text-anchor="start" x="927.46" y="-846.73" font-family="Helvetica,sans-Serif" font-weight="bold" font-size="32.00" fill="#ffffff"> &#160;&#160;&#160;&#160;&#160;&#160;Product &#160;&#160;&#160;&#160;&#160;&#160;</text>
<polygon fill="#e7e2dd" stroke="transparent" points="895.33,-765.53 895.33,-825.53 1194.33,-825.53 1194.33,-765.53 895.33,-765.53"/>
<polygon fill="none" stroke="#29235c" points="895.33,-765.53 895.33,-825.53 1194.33,-825.53 1194.33,-765.53 895.33,-765.53"/>
<text text-anchor="start" x="906.33" y="-786.73" font-family="Helvetica,sans-Serif" font-weight="bold" font-size="32.00" fill="#29235c">id</text>
<text text-anchor="start" x="931.22" y="-786.73" font-family="Helvetica,sans-Serif" font-size="32.00" fill="#29235c"> &#160;&#160;&#160;</text>
<text text-anchor="start" x="1041.12" y="-786.73" font-family="Helvetica,sans-Serif" font-style="italic" font-size="32.00" fill="#29235c">INTEGER</text>
<polygon fill="#e7e2dd" stroke="transparent" points="895.33,-705.53 895.33,-765.53 1194.33,-765.53 1194.33,-705.53 895.33,-705.53"/>
<polygon fill="none" stroke="#29235c" points="895.33,-705.53 895.33,-765.53 1194.33,-765.53 1194.33,-705.53 895.33,-705.53"/>
<text text-anchor="start" x="906.33" y="-725.73" font-family="Helvetica,sans-Serif" font-size="32.00" fill="#29235c">name &#160;&#160;&#160;</text>
<text text-anchor="start" x="1026.91" y="-726.73" font-family="Helvetica,sans-Serif" font-style="italic" font-size="32.00" fill="#29235c">VARCHAR</text>
<polygon fill="#e7e2dd" stroke="transparent" points="895.33,-645.53 895.33,-705.53 1194.33,-705.53 1194.33,-645.53 895.33,-645.53"/>
<polygon fill="none" stroke="#29235c" points="895.33,-645.53 895.33,-705.53 1194.33,-705.53 1194.33,-645.53 895.33,-645.53"/>
<text text-anchor="start" x="906.2" y="-665.73" font-family="Helvetica,sans-Serif" font-size="32.00" fill="#29235c">unit_price &#160;&#160;&#160;</text>
<text text-anchor="start" x="1080.27" y="-666.73" font-family="Helvetica,sans-Serif" font-style="italic" font-size="32.00" fill="#29235c">FLOAT</text>
<polygon fill="none" stroke="#29235c" stroke-width="2" points="893.83,-644.53 893.83,-886.53 1194.83,-886.53 1194.83,-644.53 893.83,-644.53"/>
</g>
<!-- Inventory&#45;&gt;Product -->
<!-- Inventory&#45;&gt;Product -->
<g id="edge8" class="edge">
<title>Inventory:e&#45;&gt;Product:w</title>
<path fill="none" stroke="#29235c" stroke-width="3" d="M581.8,-505.53C767.86,-505.53 707.16,-785.15 884.31,-795.25"/>
<polygon fill="#29235c" stroke="#29235c" stroke-width="3" points="884.24,-798.75 894.33,-795.53 884.44,-791.76 884.24,-798.75"/>
<text text-anchor="middle" x="888.11" y="-766.73" font-family="Helvetica,sans-Serif" font-size="32.00" fill="#29235c">*</text>
<text text-anchor="middle" x="572.9" y="-476.73" font-family="Helvetica,sans-Serif" font-size="32.00" fill="#29235c">1</text>
</g>
<!-- Item -->
<g id="Item" class="node">
<title>Item</title>
<ellipse fill="none" stroke="black" stroke-width="0" cx="357.8" cy="-1025.53" rx="248.8" ry="299.63"/>
<polygon fill="#1d71b8" stroke="transparent" points="183.8,-1175.53 183.8,-1235.53 531.8,-1235.53 531.8,-1175.53 183.8,-1175.53"/>
<polygon fill="none" stroke="#29235c" points="183.8,-1175.53 183.8,-1235.53 531.8,-1235.53 531.8,-1175.53 183.8,-1175.53"/>
<text text-anchor="start" x="264.43" y="-1196.73" font-family="Helvetica,sans-Serif" font-weight="bold" font-size="32.00" fill="#ffffff"> &#160;&#160;&#160;&#160;&#160;&#160;Item &#160;&#160;&#160;&#160;&#160;&#160;</text>
<polygon fill="#e7e2dd" stroke="transparent" points="183.8,-1115.53 183.8,-1175.53 531.8,-1175.53 531.8,-1115.53 183.8,-1115.53"/>
<polygon fill="none" stroke="#29235c" points="183.8,-1115.53 183.8,-1175.53 531.8,-1175.53 531.8,-1115.53 183.8,-1115.53"/>
<text text-anchor="start" x="194.8" y="-1136.73" font-family="Helvetica,sans-Serif" font-weight="bold" font-size="32.00" fill="#29235c">id</text>
<text text-anchor="start" x="219.69" y="-1136.73" font-family="Helvetica,sans-Serif" font-size="32.00" fill="#29235c"> &#160;&#160;&#160;</text>
<text text-anchor="start" x="378.58" y="-1136.73" font-family="Helvetica,sans-Serif" font-style="italic" font-size="32.00" fill="#29235c">INTEGER</text>
<polygon fill="#e7e2dd" stroke="transparent" points="183.8,-1055.53 183.8,-1115.53 531.8,-1115.53 531.8,-1055.53 183.8,-1055.53"/>
<polygon fill="none" stroke="#29235c" points="183.8,-1055.53 183.8,-1115.53 531.8,-1115.53 531.8,-1055.53 183.8,-1055.53"/>
<text text-anchor="start" x="194.8" y="-1075.73" font-family="Helvetica,sans-Serif" font-size="32.00" fill="#29235c">order_id &#160;&#160;&#160;</text>
<text text-anchor="start" x="378.58" y="-1076.73" font-family="Helvetica,sans-Serif" font-style="italic" font-size="32.00" fill="#29235c">INTEGER</text>
<polygon fill="#e7e2dd" stroke="transparent" points="183.8,-995.53 183.8,-1055.53 531.8,-1055.53 531.8,-995.53 183.8,-995.53"/>
<polygon fill="none" stroke="#29235c" points="183.8,-995.53 183.8,-1055.53 531.8,-1055.53 531.8,-995.53 183.8,-995.53"/>
<text text-anchor="start" x="194.32" y="-1015.73" font-family="Helvetica,sans-Serif" font-size="32.00" fill="#29235c">product_id &#160;&#160;&#160;</text>
<text text-anchor="start" x="378.69" y="-1016.73" font-family="Helvetica,sans-Serif" font-style="italic" font-size="32.00" fill="#29235c">INTEGER</text>
<polygon fill="#e7e2dd" stroke="transparent" points="183.8,-935.53 183.8,-995.53 531.8,-995.53 531.8,-935.53 183.8,-935.53"/>
<polygon fill="none" stroke="#29235c" points="183.8,-935.53 183.8,-995.53 531.8,-995.53 531.8,-935.53 183.8,-935.53"/>
<text text-anchor="start" x="194.8" y="-955.73" font-family="Helvetica,sans-Serif" font-size="32.00" fill="#29235c">quantity &#160;&#160;&#160;</text>
<text text-anchor="start" x="378.58" y="-956.73" font-family="Helvetica,sans-Serif" font-style="italic" font-size="32.00" fill="#29235c">INTEGER</text>
<polygon fill="#e7e2dd" stroke="transparent" points="183.8,-875.53 183.8,-935.53 531.8,-935.53 531.8,-875.53 183.8,-875.53"/>
<polygon fill="none" stroke="#29235c" points="183.8,-875.53 183.8,-935.53 531.8,-935.53 531.8,-875.53 183.8,-875.53"/>
<text text-anchor="start" x="194.8" y="-895.73" font-family="Helvetica,sans-Serif" font-size="32.00" fill="#29235c">unit_price &#160;&#160;&#160;</text>
<text text-anchor="start" x="417.68" y="-896.73" font-family="Helvetica,sans-Serif" font-style="italic" font-size="32.00" fill="#29235c">FLOAT</text>
<polygon fill="#e7e2dd" stroke="transparent" points="183.8,-815.53 183.8,-875.53 531.8,-875.53 531.8,-815.53 183.8,-815.53"/>
<polygon fill="none" stroke="#29235c" points="183.8,-815.53 183.8,-875.53 531.8,-875.53 531.8,-815.53 183.8,-815.53"/>
<text text-anchor="start" x="194.8" y="-835.73" font-family="Helvetica,sans-Serif" font-size="32.00" fill="#29235c">amount &#160;&#160;&#160;</text>
<text text-anchor="start" x="417.68" y="-836.73" font-family="Helvetica,sans-Serif" font-style="italic" font-size="32.00" fill="#29235c">FLOAT</text>
<polygon fill="none" stroke="#29235c" stroke-width="2" points="182.8,-814.53 182.8,-1236.53 532.8,-1236.53 532.8,-814.53 182.8,-814.53"/>
</g>
<!-- Item&#45;&gt;Product -->
<!-- Item&#45;&gt;Product -->
<g id="edge12" class="edge">
<title>Item:e&#45;&gt;Product:w</title>
<path fill="none" stroke="#29235c" stroke-width="3" d="M532.8,-1025.53C719.8,-1025.53 704.52,-803.77 884.22,-795.76"/>
<polygon fill="#29235c" stroke="#29235c" stroke-width="3" points="884.41,-799.25 894.33,-795.53 884.26,-792.25 884.41,-799.25"/>
<text text-anchor="middle" x="888.11" y="-805.13" font-family="Helvetica,sans-Serif" font-size="32.00" fill="#29235c">*</text>
<text text-anchor="middle" x="523.9" y="-996.73" font-family="Helvetica,sans-Serif" font-size="32.00" fill="#29235c">1</text>
</g>
<!-- Order -->
<g id="Order" class="node">
<title>Order</title>
<ellipse fill="none" stroke="black" stroke-width="0" cx="1044.33" cy="-1455.53" rx="292.98" ry="257.27"/>
<polygon fill="#1d71b8" stroke="transparent" points="839.33,-1575.53 839.33,-1635.53 1249.33,-1635.53 1249.33,-1575.53 839.33,-1575.53"/>
<polygon fill="none" stroke="#29235c" points="839.33,-1575.53 839.33,-1635.53 1249.33,-1635.53 1249.33,-1575.53 839.33,-1575.53"/>
<text text-anchor="start" x="941.2" y="-1596.73" font-family="Helvetica,sans-Serif" font-weight="bold" font-size="32.00" fill="#ffffff"> &#160;&#160;&#160;&#160;&#160;&#160;Order &#160;&#160;&#160;&#160;&#160;&#160;</text>
<polygon fill="#e7e2dd" stroke="transparent" points="839.33,-1515.53 839.33,-1575.53 1249.33,-1575.53 1249.33,-1515.53 839.33,-1515.53"/>
<polygon fill="none" stroke="#29235c" points="839.33,-1515.53 839.33,-1575.53 1249.33,-1575.53 1249.33,-1515.53 839.33,-1515.53"/>
<text text-anchor="start" x="850.33" y="-1536.73" font-family="Helvetica,sans-Serif" font-weight="bold" font-size="32.00" fill="#29235c">id</text>
<text text-anchor="start" x="875.22" y="-1536.73" font-family="Helvetica,sans-Serif" font-size="32.00" fill="#29235c"> &#160;&#160;&#160;</text>
<text text-anchor="start" x="1096.12" y="-1536.73" font-family="Helvetica,sans-Serif" font-style="italic" font-size="32.00" fill="#29235c">INTEGER</text>
<polygon fill="#e7e2dd" stroke="transparent" points="839.33,-1455.53 839.33,-1515.53 1249.33,-1515.53 1249.33,-1455.53 839.33,-1455.53"/>
<polygon fill="none" stroke="#29235c" points="839.33,-1455.53 839.33,-1515.53 1249.33,-1515.53 1249.33,-1455.53 839.33,-1455.53"/>
<text text-anchor="start" x="850.33" y="-1475.73" font-family="Helvetica,sans-Serif" font-size="32.00" fill="#29235c">customer_id &#160;&#160;&#160;</text>
<text text-anchor="start" x="1096.12" y="-1476.73" font-family="Helvetica,sans-Serif" font-style="italic" font-size="32.00" fill="#29235c">INTEGER</text>
<polygon fill="#e7e2dd" stroke="transparent" points="839.33,-1395.53 839.33,-1455.53 1249.33,-1455.53 1249.33,-1395.53 839.33,-1395.53"/>
<polygon fill="none" stroke="#29235c" points="839.33,-1395.53 839.33,-1455.53 1249.33,-1455.53 1249.33,-1395.53 839.33,-1395.53"/>
<text text-anchor="start" x="850" y="-1415.73" font-family="Helvetica,sans-Serif" font-size="32.00" fill="#29235c">date_shipped &#160;&#160;&#160;</text>
<text text-anchor="start" x="1076.95" y="-1416.73" font-family="Helvetica,sans-Serif" font-style="italic" font-size="32.00" fill="#29235c">DATETIME</text>
<polygon fill="#e7e2dd" stroke="transparent" points="839.33,-1335.53 839.33,-1395.53 1249.33,-1395.53 1249.33,-1335.53 839.33,-1335.53"/>
<polygon fill="none" stroke="#29235c" points="839.33,-1335.53 839.33,-1395.53 1249.33,-1395.53 1249.33,-1335.53 839.33,-1335.53"/>
<text text-anchor="start" x="850.33" y="-1355.73" font-family="Helvetica,sans-Serif" font-size="32.00" fill="#29235c">notes &#160;&#160;&#160;</text>
<text text-anchor="start" x="1081.91" y="-1356.73" font-family="Helvetica,sans-Serif" font-style="italic" font-size="32.00" fill="#29235c">VARCHAR</text>
<polygon fill="#e7e2dd" stroke="transparent" points="839.33,-1275.53 839.33,-1335.53 1249.33,-1335.53 1249.33,-1275.53 839.33,-1275.53"/>
<polygon fill="none" stroke="#29235c" points="839.33,-1275.53 839.33,-1335.53 1249.33,-1335.53 1249.33,-1275.53 839.33,-1275.53"/>
<text text-anchor="start" x="850.33" y="-1295.73" font-family="Helvetica,sans-Serif" font-size="32.00" fill="#29235c">amount_total &#160;&#160;&#160;</text>
<text text-anchor="start" x="1135.21" y="-1296.73" font-family="Helvetica,sans-Serif" font-style="italic" font-size="32.00" fill="#29235c">FLOAT</text>
<polygon fill="none" stroke="#29235c" stroke-width="2" points="838.33,-1274.53 838.33,-1636.53 1250.33,-1636.53 1250.33,-1274.53 838.33,-1274.53"/>
</g>
<!-- Item&#45;&gt;Order -->
<!-- Item&#45;&gt;Order -->
<g id="edge10" class="edge">
<title>Item:e&#45;&gt;Order:w</title>
<path fill="none" stroke="#29235c" stroke-width="3" d="M532.8,-1085.53C669.72,-1085.53 640.55,-1219 715.59,-1333.53 773.34,-1421.67 732.3,-1537.77 828.28,-1545.16"/>
<polygon fill="#29235c" stroke="#29235c" stroke-width="3" points="828.21,-1548.66 838.33,-1545.53 828.47,-1541.67 828.21,-1548.66"/>
<text text-anchor="middle" x="832.11" y="-1516.73" font-family="Helvetica,sans-Serif" font-size="32.00" fill="#29235c">*</text>
<text text-anchor="middle" x="523.9" y="-1056.73" font-family="Helvetica,sans-Serif" font-size="32.00" fill="#29235c">1</text>
</g>
<!-- Order&#45;&gt;Customer -->
<!-- Order&#45;&gt;Customer -->
<g id="edge14" class="edge">
<title>Order:e&#45;&gt;Customer:w</title>
<path fill="none" stroke="#29235c" stroke-width="3" d="M1250.33,-1485.53C1403.12,-1485.53 1289.3,-1768.39 1430.11,-1781.09"/>
<polygon fill="#29235c" stroke="#29235c" stroke-width="3" points="1430.09,-1784.59 1440.23,-1781.53 1430.39,-1777.6 1430.09,-1784.59"/>
<text text-anchor="middle" x="1434.01" y="-1791.13" font-family="Helvetica,sans-Serif" font-size="32.00" fill="#29235c">*</text>
<text text-anchor="middle" x="1241.44" y="-1456.73" font-family="Helvetica,sans-Serif" font-size="32.00" fill="#29235c">1</text>
</g>
<!-- OrderProductAssociation -->
<g id="OrderProductAssociation" class="node">
<title>OrderProductAssociation</title>
<ellipse fill="none" stroke="black" stroke-width="0" cx="357.8" cy="-1515.53" rx="357.59" ry="172.57"/>
<polygon fill="#1d71b8" stroke="transparent" points="106.8,-1575.53 106.8,-1635.53 608.8,-1635.53 608.8,-1575.53 106.8,-1575.53"/>
<polygon fill="none" stroke="#29235c" points="106.8,-1575.53 106.8,-1635.53 608.8,-1635.53 608.8,-1575.53 106.8,-1575.53"/>
<text text-anchor="start" x="117.74" y="-1596.73" font-family="Helvetica,sans-Serif" font-weight="bold" font-size="32.00" fill="#ffffff"> &#160;&#160;&#160;&#160;&#160;&#160;OrderProductAssociation &#160;&#160;&#160;&#160;&#160;&#160;</text>
<polygon fill="#e7e2dd" stroke="transparent" points="106.8,-1515.53 106.8,-1575.53 608.8,-1575.53 608.8,-1515.53 106.8,-1515.53"/>
<polygon fill="none" stroke="#29235c" points="106.8,-1515.53 106.8,-1575.53 608.8,-1575.53 608.8,-1515.53 106.8,-1515.53"/>
<text text-anchor="start" x="117.8" y="-1536.73" font-family="Helvetica,sans-Serif" font-weight="bold" font-size="32.00" fill="#29235c">id</text>
<text text-anchor="start" x="142.69" y="-1536.73" font-family="Helvetica,sans-Serif" font-size="32.00" fill="#29235c"> &#160;&#160;&#160;</text>
<text text-anchor="start" x="455.58" y="-1536.73" font-family="Helvetica,sans-Serif" font-style="italic" font-size="32.00" fill="#29235c">INTEGER</text>
<polygon fill="#e7e2dd" stroke="transparent" points="106.8,-1455.53 106.8,-1515.53 608.8,-1515.53 608.8,-1455.53 106.8,-1455.53"/>
<polygon fill="none" stroke="#29235c" points="106.8,-1455.53 106.8,-1515.53 608.8,-1515.53 608.8,-1455.53 106.8,-1455.53"/>
<text text-anchor="start" x="117.8" y="-1475.73" font-family="Helvetica,sans-Serif" font-size="32.00" fill="#29235c">order_id &#160;&#160;&#160;</text>
<text text-anchor="start" x="455.58" y="-1476.73" font-family="Helvetica,sans-Serif" font-style="italic" font-size="32.00" fill="#29235c">INTEGER</text>
<polygon fill="#e7e2dd" stroke="transparent" points="106.8,-1395.53 106.8,-1455.53 608.8,-1455.53 608.8,-1395.53 106.8,-1395.53"/>
<polygon fill="none" stroke="#29235c" points="106.8,-1395.53 106.8,-1455.53 608.8,-1455.53 608.8,-1395.53 106.8,-1395.53"/>
<text text-anchor="start" x="117.8" y="-1415.73" font-family="Helvetica,sans-Serif" font-size="32.00" fill="#29235c">product_id &#160;&#160;&#160;</text>
<text text-anchor="start" x="455.58" y="-1416.73" font-family="Helvetica,sans-Serif" font-style="italic" font-size="32.00" fill="#29235c">INTEGER</text>
<polygon fill="none" stroke="#29235c" stroke-width="2" points="105.8,-1394.53 105.8,-1636.53 609.8,-1636.53 609.8,-1394.53 105.8,-1394.53"/>
</g>
<!-- OrderProductAssociation&#45;&gt;Product -->
<!-- OrderProductAssociation&#45;&gt;Product -->
<g id="edge18" class="edge">
<title>OrderProductAssociation:e&#45;&gt;Product:w</title>
<path fill="none" stroke="#29235c" stroke-width="3" d="M609.8,-1425.53C671.82,-1425.53 683.07,-1387.35 715.59,-1334.53 750.41,-1277.99 732.26,-1253.06 751.59,-1189.53 804.82,-1014.66 711.66,-803.53 884.26,-795.76"/>
<polygon fill="#29235c" stroke="#29235c" stroke-width="3" points="884.41,-799.25 894.33,-795.53 884.26,-792.25 884.41,-799.25"/>
<text text-anchor="middle" x="900.56" y="-766.73" font-family="Helvetica,sans-Serif" font-size="32.00" fill="#29235c">*</text>
<text text-anchor="middle" x="600.9" y="-1396.73" font-family="Helvetica,sans-Serif" font-size="32.00" fill="#29235c">1</text>
</g>
<!-- OrderProductAssociation&#45;&gt;Order -->
<!-- OrderProductAssociation&#45;&gt;Order -->
<g id="edge16" class="edge">
<title>OrderProductAssociation:e&#45;&gt;Order:w</title>
<path fill="none" stroke="#29235c" stroke-width="3" d="M609.8,-1485.53C711.32,-1485.53 732,-1541.62 828.15,-1545.34"/>
<polygon fill="#29235c" stroke="#29235c" stroke-width="3" points="828.27,-1548.84 838.33,-1545.53 828.4,-1541.84 828.27,-1548.84"/>
<text text-anchor="middle" x="832.11" y="-1555.13" font-family="Helvetica,sans-Serif" font-size="32.00" fill="#29235c">*</text>
<text text-anchor="middle" x="600.9" y="-1456.73" font-family="Helvetica,sans-Serif" font-size="32.00" fill="#29235c">1</text>
</g>
<!-- Payment -->
<g id="Payment" class="node">
<title>Payment</title>
<ellipse fill="none" stroke="black" stroke-width="0" cx="357.8" cy="-1920.53" rx="226.05" ry="214.92"/>
<polygon fill="#1d71b8" stroke="transparent" points="199.8,-2010.53 199.8,-2070.53 515.8,-2070.53 515.8,-2010.53 199.8,-2010.53"/>
<polygon fill="none" stroke="#29235c" points="199.8,-2010.53 199.8,-2070.53 515.8,-2070.53 515.8,-2010.53 199.8,-2010.53"/>
<text text-anchor="start" x="232.42" y="-2031.73" font-family="Helvetica,sans-Serif" font-weight="bold" font-size="32.00" fill="#ffffff"> &#160;&#160;&#160;&#160;&#160;&#160;Payment &#160;&#160;&#160;&#160;&#160;&#160;</text>
<polygon fill="#e7e2dd" stroke="transparent" points="199.8,-1950.53 199.8,-2010.53 515.8,-2010.53 515.8,-1950.53 199.8,-1950.53"/>
<polygon fill="none" stroke="#29235c" points="199.8,-1950.53 199.8,-2010.53 515.8,-2010.53 515.8,-1950.53 199.8,-1950.53"/>
<text text-anchor="start" x="210.8" y="-1971.73" font-family="Helvetica,sans-Serif" font-weight="bold" font-size="32.00" fill="#29235c">id</text>
<text text-anchor="start" x="235.69" y="-1971.73" font-family="Helvetica,sans-Serif" font-size="32.00" fill="#29235c"> &#160;&#160;&#160;</text>
<text text-anchor="start" x="362.58" y="-1971.73" font-family="Helvetica,sans-Serif" font-style="italic" font-size="32.00" fill="#29235c">INTEGER</text>
<polygon fill="#e7e2dd" stroke="transparent" points="199.8,-1890.53 199.8,-1950.53 515.8,-1950.53 515.8,-1890.53 199.8,-1890.53"/>
<polygon fill="none" stroke="#29235c" points="199.8,-1890.53 199.8,-1950.53 515.8,-1950.53 515.8,-1890.53 199.8,-1890.53"/>
<text text-anchor="start" x="210.34" y="-1910.73" font-family="Helvetica,sans-Serif" font-size="32.00" fill="#29235c">order_id &#160;&#160;&#160;</text>
<text text-anchor="start" x="362.69" y="-1911.73" font-family="Helvetica,sans-Serif" font-style="italic" font-size="32.00" fill="#29235c">INTEGER</text>
<polygon fill="#e7e2dd" stroke="transparent" points="199.8,-1830.53 199.8,-1890.53 515.8,-1890.53 515.8,-1830.53 199.8,-1830.53"/>
<polygon fill="none" stroke="#29235c" points="199.8,-1830.53 199.8,-1890.53 515.8,-1890.53 515.8,-1830.53 199.8,-1830.53"/>
<text text-anchor="start" x="210.8" y="-1850.73" font-family="Helvetica,sans-Serif" font-size="32.00" fill="#29235c">amount &#160;&#160;&#160;</text>
<text text-anchor="start" x="401.68" y="-1851.73" font-family="Helvetica,sans-Serif" font-style="italic" font-size="32.00" fill="#29235c">FLOAT</text>
<polygon fill="#e7e2dd" stroke="transparent" points="199.8,-1770.53 199.8,-1830.53 515.8,-1830.53 515.8,-1770.53 199.8,-1770.53"/>
<polygon fill="none" stroke="#29235c" points="199.8,-1770.53 199.8,-1830.53 515.8,-1830.53 515.8,-1770.53 199.8,-1770.53"/>
<text text-anchor="start" x="210.8" y="-1790.73" font-family="Helvetica,sans-Serif" font-size="32.00" fill="#29235c">date &#160;&#160;&#160;</text>
<text text-anchor="start" x="343.03" y="-1791.73" font-family="Helvetica,sans-Serif" font-style="italic" font-size="32.00" fill="#29235c">DATETIME</text>
<polygon fill="none" stroke="#29235c" stroke-width="2" points="198.8,-1769.53 198.8,-2071.53 516.8,-2071.53 516.8,-1769.53 198.8,-1769.53"/>
</g>
<!-- Payment&#45;&gt;Order -->
<!-- Payment&#45;&gt;Order -->
<g id="edge20" class="edge">
<title>Payment:e&#45;&gt;Order:w</title>
<path fill="none" stroke="#29235c" stroke-width="3" d="M516.8,-1920.53C649.57,-1920.53 629.68,-1798.77 715.59,-1697.53 769.47,-1634.04 753.04,-1552.54 828.18,-1545.96"/>
<polygon fill="#29235c" stroke="#29235c" stroke-width="3" points="828.49,-1549.45 838.33,-1545.53 828.2,-1542.46 828.49,-1549.45"/>
<text text-anchor="middle" x="844.56" y="-1516.73" font-family="Helvetica,sans-Serif" font-size="32.00" fill="#29235c">*</text>
<text text-anchor="middle" x="507.9" y="-1891.73" font-family="Helvetica,sans-Serif" font-size="32.00" fill="#29235c">1</text>
</g>
<!-- ProductCategory -->
<g id="ProductCategory" class="node">
<title>ProductCategory</title>
<ellipse fill="none" stroke="black" stroke-width="0" cx="357.8" cy="-172.53" rx="275.54" ry="172.57"/>
<polygon fill="#1d71b8" stroke="transparent" points="164.8,-232.53 164.8,-292.53 550.8,-292.53 550.8,-232.53 164.8,-232.53"/>
<polygon fill="none" stroke="#29235c" points="164.8,-232.53 164.8,-292.53 550.8,-292.53 550.8,-232.53 164.8,-232.53"/>
<text text-anchor="start" x="175.52" y="-253.73" font-family="Helvetica,sans-Serif" font-weight="bold" font-size="32.00" fill="#ffffff"> &#160;&#160;&#160;&#160;&#160;&#160;ProductCategory &#160;&#160;&#160;&#160;&#160;&#160;</text>
<polygon fill="#e7e2dd" stroke="transparent" points="164.8,-172.53 164.8,-232.53 550.8,-232.53 550.8,-172.53 164.8,-172.53"/>
<polygon fill="none" stroke="#29235c" points="164.8,-172.53 164.8,-232.53 550.8,-232.53 550.8,-172.53 164.8,-172.53"/>
<text text-anchor="start" x="175.8" y="-193.73" font-family="Helvetica,sans-Serif" font-weight="bold" font-size="32.00" fill="#29235c">id</text>
<text text-anchor="start" x="200.69" y="-193.73" font-family="Helvetica,sans-Serif" font-size="32.00" fill="#29235c"> &#160;&#160;&#160;</text>
<text text-anchor="start" x="397.58" y="-193.73" font-family="Helvetica,sans-Serif" font-style="italic" font-size="32.00" fill="#29235c">INTEGER</text>
<polygon fill="#e7e2dd" stroke="transparent" points="164.8,-112.53 164.8,-172.53 550.8,-172.53 550.8,-112.53 164.8,-112.53"/>
<polygon fill="none" stroke="#29235c" points="164.8,-112.53 164.8,-172.53 550.8,-172.53 550.8,-112.53 164.8,-112.53"/>
<text text-anchor="start" x="175.8" y="-132.73" font-family="Helvetica,sans-Serif" font-size="32.00" fill="#29235c">product_id &#160;&#160;&#160;</text>
<text text-anchor="start" x="397.58" y="-133.73" font-family="Helvetica,sans-Serif" font-style="italic" font-size="32.00" fill="#29235c">INTEGER</text>
<polygon fill="#e7e2dd" stroke="transparent" points="164.8,-52.53 164.8,-112.53 550.8,-112.53 550.8,-52.53 164.8,-52.53"/>
<polygon fill="none" stroke="#29235c" points="164.8,-52.53 164.8,-112.53 550.8,-112.53 550.8,-52.53 164.8,-52.53"/>
<text text-anchor="start" x="175.8" y="-72.73" font-family="Helvetica,sans-Serif" font-size="32.00" fill="#29235c">category_id &#160;&#160;&#160;</text>
<text text-anchor="start" x="397.58" y="-73.73" font-family="Helvetica,sans-Serif" font-style="italic" font-size="32.00" fill="#29235c">INTEGER</text>
<polygon fill="none" stroke="#29235c" stroke-width="2" points="163.8,-51.53 163.8,-293.53 551.8,-293.53 551.8,-51.53 163.8,-51.53"/>
</g>
<!-- ProductCategory&#45;&gt;Category -->
<!-- ProductCategory&#45;&gt;Category -->
<g id="edge22" class="edge">
<title>ProductCategory:e&#45;&gt;Category:w</title>
<path fill="none" stroke="#29235c" stroke-width="3" d="M551.8,-82.53C710.87,-82.53 733.82,-197.43 887.05,-202.37"/>
<polygon fill="#29235c" stroke="#29235c" stroke-width="3" points="887.28,-205.87 897.33,-202.53 887.39,-198.88 887.28,-205.87"/>
<text text-anchor="middle" x="891.11" y="-173.73" font-family="Helvetica,sans-Serif" font-size="32.00" fill="#29235c">*</text>
<text text-anchor="middle" x="542.9" y="-53.73" font-family="Helvetica,sans-Serif" font-size="32.00" fill="#29235c">1</text>
</g>
<!-- ProductCategory&#45;&gt;Product -->
<!-- ProductCategory&#45;&gt;Product -->
<g id="edge24" class="edge">
<title>ProductCategory:e&#45;&gt;Product:w</title>
<path fill="none" stroke="#29235c" stroke-width="3" d="M551.8,-142.53C876,-142.53 573.26,-781.58 883.99,-795.31"/>
<polygon fill="#29235c" stroke="#29235c" stroke-width="3" points="884.26,-798.82 894.33,-795.53 884.41,-791.82 884.26,-798.82"/>
<text text-anchor="middle" x="900.56" y="-805.13" font-family="Helvetica,sans-Serif" font-size="32.00" fill="#29235c">*</text>
<text text-anchor="middle" x="542.9" y="-113.73" font-family="Helvetica,sans-Serif" font-size="32.00" fill="#29235c">1</text>
</g>
<!-- Supplier -->
<g id="Supplier" class="node">
<title>Supplier</title>
<ellipse fill="none" stroke="black" stroke-width="0" cx="357.8" cy="-2920.53" rx="210.02" ry="130.22"/>
<polygon fill="#1d71b8" stroke="transparent" points="211.8,-2950.53 211.8,-3010.53 504.8,-3010.53 504.8,-2950.53 211.8,-2950.53"/>
<polygon fill="none" stroke="#29235c" points="211.8,-2950.53 211.8,-3010.53 504.8,-3010.53 504.8,-2950.53 211.8,-2950.53"/>
<text text-anchor="start" x="237.37" y="-2971.73" font-family="Helvetica,sans-Serif" font-weight="bold" font-size="32.00" fill="#ffffff"> &#160;&#160;&#160;&#160;&#160;&#160;Supplier &#160;&#160;&#160;&#160;&#160;&#160;</text>
<polygon fill="#e7e2dd" stroke="transparent" points="211.8,-2890.53 211.8,-2950.53 504.8,-2950.53 504.8,-2890.53 211.8,-2890.53"/>
<polygon fill="none" stroke="#29235c" points="211.8,-2890.53 211.8,-2950.53 504.8,-2950.53 504.8,-2890.53 211.8,-2890.53"/>
<text text-anchor="start" x="222.8" y="-2911.73" font-family="Helvetica,sans-Serif" font-weight="bold" font-size="32.00" fill="#29235c">id</text>
<text text-anchor="start" x="247.69" y="-2911.73" font-family="Helvetica,sans-Serif" font-size="32.00" fill="#29235c"> &#160;&#160;&#160;</text>
<text text-anchor="start" x="351.58" y="-2911.73" font-family="Helvetica,sans-Serif" font-style="italic" font-size="32.00" fill="#29235c">INTEGER</text>
<polygon fill="#e7e2dd" stroke="transparent" points="211.8,-2830.53 211.8,-2890.53 504.8,-2890.53 504.8,-2830.53 211.8,-2830.53"/>
<polygon fill="none" stroke="#29235c" points="211.8,-2830.53 211.8,-2890.53 504.8,-2890.53 504.8,-2830.53 211.8,-2830.53"/>
<text text-anchor="start" x="222.5" y="-2850.73" font-family="Helvetica,sans-Serif" font-size="32.00" fill="#29235c">name &#160;&#160;&#160;</text>
<text text-anchor="start" x="337.58" y="-2851.73" font-family="Helvetica,sans-Serif" font-style="italic" font-size="32.00" fill="#29235c">VARCHAR</text>
<polygon fill="none" stroke="#29235c" stroke-width="2" points="210.3,-2829.53 210.3,-3011.53 505.3,-3011.53 505.3,-2829.53 210.3,-2829.53"/>
</g>
</g>
</svg>
